<?xml version="1.0" encoding="UTF-8" standalone="no"?>
<!DOCTYPE svg PUBLIC "-//W3C//DTD SVG 1.1//EN"
 "http://www.w3.org/Graphics/SVG/1.1/DTD/svg11.dtd">
<!-- Generated by graphviz version 13.1.2 (20250808.2320)
 -->
<!-- Title: relu Pages: 1 -->
<svg width="572pt" height="1170pt"
 viewBox="0.00 0.00 572.00 1170.00" xmlns="http://www.w3.org/2000/svg" xmlns:xlink="http://www.w3.org/1999/xlink">
<g id="graph0" class="graph" transform="scale(1 1) rotate(0) translate(4 1165.5)">
<title>relu</title>
<polygon fill="white" stroke="none" points="-4,4 -4,-1165.5 567.69,-1165.5 567.69,4 -4,4"/>
<text xml:space="preserve" text-anchor="middle" x="281.84" y="-7.2" font-family="Times,serif" font-size="14.00">relu</text>
<!-- n1 -->
<g id="node1" class="node">
<title>n1</title>
<polygon fill="none" stroke="black" points="82.36,-585.54 82.36,-600.46 58.24,-611 24.12,-611 0,-600.46 0,-585.54 24.12,-575 58.24,-575 82.36,-585.54"/>
<text xml:space="preserve" text-anchor="middle" x="41.18" y="-587.95" font-family="Times,serif" font-size="14.00">data_in</text>
</g>
<!-- x0 -->
<g id="node5" class="node">
<title>x0</title>
<path fill="none" stroke="#666666" d="M130.36,-1125C130.36,-1125 168.86,-1125 168.86,-1125 174.86,-1125 180.86,-1131 180.86,-1137 180.86,-1137 180.86,-1149 180.86,-1149 180.86,-1155 174.86,-1161 168.86,-1161 168.86,-1161 130.36,-1161 130.36,-1161 124.36,-1161 118.36,-1155 118.36,-1149 118.36,-1149 118.36,-1137 118.36,-1137 118.36,-1131 124.36,-1125 130.36,-1125"/>
<text xml:space="preserve" text-anchor="middle" x="149.61" y="-1138.2" font-family="Times,serif" font-size="14.00" fill="#666666">0:0 &#45; 0:0</text>
</g>
<!-- n1&#45;&gt;x0 -->
<g id="edge22" class="edge">
<title>n1:e&#45;&gt;x0:w</title>
<path fill="none" stroke="#e6ab02" d="M82.36,-593C139.92,-593 67.03,-1078.64 108.79,-1137.44"/>
<polygon fill="#e6ab02" stroke="#e6ab02" points="106.7,-1140.27 117.06,-1142.46 110.33,-1134.28 106.7,-1140.27"/>
</g>
<!-- x2 -->
<g id="node6" class="node">
<title>x2</title>
<path fill="none" stroke="#666666" d="M130.36,-1015C130.36,-1015 168.86,-1015 168.86,-1015 174.86,-1015 180.86,-1021 180.86,-1027 180.86,-1027 180.86,-1039 180.86,-1039 180.86,-1045 174.86,-1051 168.86,-1051 168.86,-1051 130.36,-1051 130.36,-1051 124.36,-1051 118.36,-1045 118.36,-1039 118.36,-1039 118.36,-1027 118.36,-1027 118.36,-1021 124.36,-1015 130.36,-1015"/>
<text xml:space="preserve" text-anchor="middle" x="149.61" y="-1028.2" font-family="Times,serif" font-size="14.00" fill="#666666">7:7 &#45; 0:0</text>
</g>
<!-- n1&#45;&gt;x2 -->
<g id="edge32" class="edge">
<title>n1:e&#45;&gt;x2:w</title>
<path fill="none" stroke="#e6ab02" d="M82.36,-593C176.3,-593 33.5,-996.23 107.1,-1030.88"/>
<polygon fill="#e6ab02" stroke="#e6ab02" points="106.37,-1034.31 116.88,-1032.94 107.81,-1027.46 106.37,-1034.31"/>
</g>
<!-- x4 -->
<g id="node10" class="node">
<title>x4</title>
<path fill="none" stroke="#e6ab02" d="M130.36,-960C130.36,-960 168.86,-960 168.86,-960 174.86,-960 180.86,-966 180.86,-972 180.86,-972 180.86,-984 180.86,-984 180.86,-990 174.86,-996 168.86,-996 168.86,-996 130.36,-996 130.36,-996 124.36,-996 118.36,-990 118.36,-984 118.36,-984 118.36,-972 118.36,-972 118.36,-966 124.36,-960 130.36,-960"/>
<text xml:space="preserve" text-anchor="middle" x="149.61" y="-973.2" font-family="Times,serif" font-size="14.00" fill="#e6ab02">1:1 &#45; 0:0</text>
</g>
<!-- n1&#45;&gt;x4 -->
<g id="edge33" class="edge">
<title>n1:e&#45;&gt;x4:w</title>
<path fill="none" stroke="#e6ab02" d="M82.36,-593C164.14,-593 45.12,-941.55 107.3,-975.58"/>
<polygon fill="#e6ab02" stroke="#e6ab02" points="106.34,-978.95 116.89,-977.9 107.99,-972.15 106.34,-978.95"/>
</g>
<!-- x6 -->
<g id="node11" class="node">
<title>x6</title>
<path fill="none" stroke="#66a61e" d="M130.36,-850C130.36,-850 168.86,-850 168.86,-850 174.86,-850 180.86,-856 180.86,-862 180.86,-862 180.86,-874 180.86,-874 180.86,-880 174.86,-886 168.86,-886 168.86,-886 130.36,-886 130.36,-886 124.36,-886 118.36,-880 118.36,-874 118.36,-874 118.36,-862 118.36,-862 118.36,-856 124.36,-850 130.36,-850"/>
<text xml:space="preserve" text-anchor="middle" x="149.61" y="-863.2" font-family="Times,serif" font-size="14.00" fill="#66a61e">7:7 &#45; 0:0</text>
</g>
<!-- n1&#45;&gt;x6 -->
<g id="edge34" class="edge">
<title>n1:e&#45;&gt;x6:w</title>
<path fill="none" stroke="#e6ab02" d="M82.36,-593C139.83,-593 67.92,-831.9 107.7,-864.57"/>
<polygon fill="#e6ab02" stroke="#e6ab02" points="106.33,-867.8 116.93,-867.76 108.62,-861.18 106.33,-867.8"/>
</g>
<!-- x8 -->
<g id="node15" class="node">
<title>x8</title>
<path fill="none" stroke="#666666" d="M130.36,-795C130.36,-795 168.86,-795 168.86,-795 174.86,-795 180.86,-801 180.86,-807 180.86,-807 180.86,-819 180.86,-819 180.86,-825 174.86,-831 168.86,-831 168.86,-831 130.36,-831 130.36,-831 124.36,-831 118.36,-825 118.36,-819 118.36,-819 118.36,-807 118.36,-807 118.36,-801 124.36,-795 130.36,-795"/>
<text xml:space="preserve" text-anchor="middle" x="149.61" y="-808.2" font-family="Times,serif" font-size="14.00" fill="#666666">2:2 &#45; 0:0</text>
</g>
<!-- n1&#45;&gt;x8 -->
<g id="edge35" class="edge">
<title>n1:e&#45;&gt;x8:w</title>
<path fill="none" stroke="#e6ab02" d="M82.36,-593C177.28,-593 32.64,-794.73 106.98,-812.06"/>
<polygon fill="#e6ab02" stroke="#e6ab02" points="106.54,-815.54 116.85,-813.09 107.27,-808.58 106.54,-815.54"/>
</g>
<!-- x10 -->
<g id="node16" class="node">
<title>x10</title>
<path fill="none" stroke="#7570b3" d="M130.36,-685C130.36,-685 168.86,-685 168.86,-685 174.86,-685 180.86,-691 180.86,-697 180.86,-697 180.86,-709 180.86,-709 180.86,-715 174.86,-721 168.86,-721 168.86,-721 130.36,-721 130.36,-721 124.36,-721 118.36,-715 118.36,-709 118.36,-709 118.36,-697 118.36,-697 118.36,-691 124.36,-685 130.36,-685"/>
<text xml:space="preserve" text-anchor="middle" x="149.61" y="-698.2" font-family="Times,serif" font-size="14.00" fill="#7570b3">7:7 &#45; 0:0</text>
</g>
<!-- n1&#45;&gt;x10 -->
<g id="edge23" class="edge">
<title>n1:e&#45;&gt;x10:w</title>
<path fill="none" stroke="#e6ab02" d="M82.36,-593C129.27,-593 77.91,-684.33 107.17,-700.74"/>
<polygon fill="#e6ab02" stroke="#e6ab02" points="106.36,-704.15 116.88,-702.92 107.89,-697.32 106.36,-704.15"/>
</g>
<!-- x12 -->
<g id="node20" class="node">
<title>x12</title>
<path fill="none" stroke="#666666" d="M130.36,-630C130.36,-630 168.86,-630 168.86,-630 174.86,-630 180.86,-636 180.86,-642 180.86,-642 180.86,-654 180.86,-654 180.86,-660 174.86,-666 168.86,-666 168.86,-666 130.36,-666 130.36,-666 124.36,-666 118.36,-660 118.36,-654 118.36,-654 118.36,-642 118.36,-642 118.36,-636 124.36,-630 130.36,-630"/>
<text xml:space="preserve" text-anchor="middle" x="149.61" y="-643.2" font-family="Times,serif" font-size="14.00" fill="#666666">3:3 &#45; 0:0</text>
</g>
<!-- n1&#45;&gt;x12 -->
<g id="edge24" class="edge">
<title>n1:e&#45;&gt;x12:w</title>
<path fill="none" stroke="#e6ab02" d="M82.36,-593C106.86,-593 95.07,-631.61 107.67,-644.28"/>
<polygon fill="#e6ab02" stroke="#e6ab02" points="106.35,-647.52 116.94,-647.72 108.79,-640.96 106.35,-647.52"/>
</g>
<!-- x14 -->
<g id="node21" class="node">
<title>x14</title>
<path fill="none" stroke="#d95f02" d="M130.36,-520C130.36,-520 168.86,-520 168.86,-520 174.86,-520 180.86,-526 180.86,-532 180.86,-532 180.86,-544 180.86,-544 180.86,-550 174.86,-556 168.86,-556 168.86,-556 130.36,-556 130.36,-556 124.36,-556 118.36,-550 118.36,-544 118.36,-544 118.36,-532 118.36,-532 118.36,-526 124.36,-520 130.36,-520"/>
<text xml:space="preserve" text-anchor="middle" x="149.61" y="-533.2" font-family="Times,serif" font-size="14.00" fill="#d95f02">7:7 &#45; 0:0</text>
</g>
<!-- n1&#45;&gt;x14 -->
<g id="edge25" class="edge">
<title>n1:e&#45;&gt;x14:w</title>
<path fill="none" stroke="#e6ab02" d="M82.36,-593C106.7,-593 95.15,-554.74 107.72,-542.19"/>
<polygon fill="#e6ab02" stroke="#e6ab02" points="108.77,-545.53 116.94,-538.78 106.35,-538.96 108.77,-545.53"/>
</g>
<!-- x16 -->
<g id="node25" class="node">
<title>x16</title>
<path fill="none" stroke="#1b9e77" d="M130.36,-465C130.36,-465 168.86,-465 168.86,-465 174.86,-465 180.86,-471 180.86,-477 180.86,-477 180.86,-489 180.86,-489 180.86,-495 174.86,-501 168.86,-501 168.86,-501 130.36,-501 130.36,-501 124.36,-501 118.36,-495 118.36,-489 118.36,-489 118.36,-477 118.36,-477 118.36,-471 124.36,-465 130.36,-465"/>
<text xml:space="preserve" text-anchor="middle" x="149.61" y="-478.2" font-family="Times,serif" font-size="14.00" fill="#1b9e77">4:4 &#45; 0:0</text>
</g>
<!-- n1&#45;&gt;x16 -->
<g id="edge26" class="edge">
<title>n1:e&#45;&gt;x16:w</title>
<path fill="none" stroke="#e6ab02" d="M82.36,-593C129.08,-593 78.05,-502.08 107.21,-485.75"/>
<polygon fill="#e6ab02" stroke="#e6ab02" points="107.89,-489.18 116.88,-483.58 106.36,-482.35 107.89,-489.18"/>
</g>
<!-- x18 -->
<g id="node26" class="node">
<title>x18</title>
<path fill="none" stroke="#e6ab02" d="M130.36,-355C130.36,-355 168.86,-355 168.86,-355 174.86,-355 180.86,-361 180.86,-367 180.86,-367 180.86,-379 180.86,-379 180.86,-385 174.86,-391 168.86,-391 168.86,-391 130.36,-391 130.36,-391 124.36,-391 118.36,-385 118.36,-379 118.36,-379 118.36,-367 118.36,-367 118.36,-361 124.36,-355 130.36,-355"/>
<text xml:space="preserve" text-anchor="middle" x="149.61" y="-368.2" font-family="Times,serif" font-size="14.00" fill="#e6ab02">7:7 &#45; 0:0</text>
</g>
<!-- n1&#45;&gt;x18 -->
<g id="edge27" class="edge">
<title>n1:e&#45;&gt;x18:w</title>
<path fill="none" stroke="#e6ab02" d="M82.36,-593C177.07,-593 32.82,-391.73 107,-374.43"/>
<polygon fill="#e6ab02" stroke="#e6ab02" points="107.27,-377.92 116.85,-373.41 106.54,-370.96 107.27,-377.92"/>
</g>
<!-- x20 -->
<g id="node30" class="node">
<title>x20</title>
<path fill="none" stroke="#66a61e" d="M130.36,-300C130.36,-300 168.86,-300 168.86,-300 174.86,-300 180.86,-306 180.86,-312 180.86,-312 180.86,-324 180.86,-324 180.86,-330 174.86,-336 168.86,-336 168.86,-336 130.36,-336 130.36,-336 124.36,-336 118.36,-330 118.36,-324 118.36,-324 118.36,-312 118.36,-312 118.36,-306 124.36,-300 130.36,-300"/>
<text xml:space="preserve" text-anchor="middle" x="149.61" y="-313.2" font-family="Times,serif" font-size="14.00" fill="#66a61e">5:5 &#45; 0:0</text>
</g>
<!-- n1&#45;&gt;x20 -->
<g id="edge28" class="edge">
<title>n1:e&#45;&gt;x20:w</title>
<path fill="none" stroke="#e6ab02" d="M82.36,-593C139.85,-593 67.7,-353.53 107.97,-321.72"/>
<polygon fill="#e6ab02" stroke="#e6ab02" points="108.55,-325.22 116.92,-318.73 106.33,-318.58 108.55,-325.22"/>
</g>
<!-- x22 -->
<g id="node31" class="node">
<title>x22</title>
<path fill="none" stroke="#7570b3" d="M130.36,-190C130.36,-190 168.86,-190 168.86,-190 174.86,-190 180.86,-196 180.86,-202 180.86,-202 180.86,-214 180.86,-214 180.86,-220 174.86,-226 168.86,-226 168.86,-226 130.36,-226 130.36,-226 124.36,-226 118.36,-220 118.36,-214 118.36,-214 118.36,-202 118.36,-202 118.36,-196 124.36,-190 130.36,-190"/>
<text xml:space="preserve" text-anchor="middle" x="149.61" y="-203.2" font-family="Times,serif" font-size="14.00" fill="#7570b3">7:7 &#45; 0:0</text>
</g>
<!-- n1&#45;&gt;x22 -->
<g id="edge29" class="edge">
<title>n1:e&#45;&gt;x22:w</title>
<path fill="none" stroke="#e6ab02" d="M82.36,-593C164.04,-593 45.21,-244.91 107.31,-210.91"/>
<polygon fill="#e6ab02" stroke="#e6ab02" points="107.99,-214.35 116.89,-208.6 106.34,-207.55 107.99,-214.35"/>
</g>
<!-- x24 -->
<g id="node35" class="node">
<title>x24</title>
<path fill="none" stroke="#d95f02" d="M130.36,-135C130.36,-135 168.86,-135 168.86,-135 174.86,-135 180.86,-141 180.86,-147 180.86,-147 180.86,-159 180.86,-159 180.86,-165 174.86,-171 168.86,-171 168.86,-171 130.36,-171 130.36,-171 124.36,-171 118.36,-165 118.36,-159 118.36,-159 118.36,-147 118.36,-147 118.36,-141 124.36,-135 130.36,-135"/>
<text xml:space="preserve" text-anchor="middle" x="149.61" y="-148.2" font-family="Times,serif" font-size="14.00" fill="#d95f02">6:6 &#45; 0:0</text>
</g>
<!-- n1&#45;&gt;x24 -->
<g id="edge30" class="edge">
<title>n1:e&#45;&gt;x24:w</title>
<path fill="none" stroke="#e6ab02" d="M82.36,-593C176.19,-593 33.59,-190.23 107.11,-155.62"/>
<polygon fill="#e6ab02" stroke="#e6ab02" points="107.81,-159.04 116.88,-153.56 106.37,-152.19 107.81,-159.04"/>
</g>
<!-- x26 -->
<g id="node36" class="node">
<title>x26</title>
<path fill="none" stroke="#7570b3" d="M130.36,-25C130.36,-25 168.86,-25 168.86,-25 174.86,-25 180.86,-31 180.86,-37 180.86,-37 180.86,-49 180.86,-49 180.86,-55 174.86,-61 168.86,-61 168.86,-61 130.36,-61 130.36,-61 124.36,-61 118.36,-55 118.36,-49 118.36,-49 118.36,-37 118.36,-37 118.36,-31 124.36,-25 130.36,-25"/>
<text xml:space="preserve" text-anchor="middle" x="149.61" y="-38.2" font-family="Times,serif" font-size="14.00" fill="#7570b3">7:7 &#45; 0:0</text>
</g>
<!-- n1&#45;&gt;x26 -->
<g id="edge31" class="edge">
<title>n1:e&#45;&gt;x26:w</title>
<path fill="none" stroke="#e6ab02" d="M82.36,-593C139.87,-593 67.07,-107.81 108.8,-49.05"/>
<polygon fill="#e6ab02" stroke="#e6ab02" points="110.33,-52.22 117.06,-44.04 106.7,-46.23 110.33,-52.22"/>
</g>
<!-- n2 -->
<g id="node2" class="node">
<title>n2</title>
<polygon fill="none" stroke="black" points="563.69,-488.54 563.69,-503.46 536.64,-514 498.4,-514 471.36,-503.46 471.36,-488.54 498.4,-478 536.64,-478 563.69,-488.54"/>
<text xml:space="preserve" text-anchor="middle" x="517.52" y="-490.95" font-family="Times,serif" font-size="14.00">data_out</text>
</g>
<!-- v1 -->
<g id="node3" class="node">
<title>v1</title>
<ellipse fill="none" stroke="black" cx="149.61" cy="-1088" rx="27" ry="18"/>
<text xml:space="preserve" text-anchor="middle" x="149.61" y="-1082.95" font-family="Times,serif" font-size="14.00">1&#39;0</text>
</g>
<!-- c7 -->
<g id="node4" class="node">
<title>c7</title>
<polygon fill="none" stroke="black" points="216.86,-1035.25 216.86,-1108.75 336.86,-1108.75 336.86,-1035.25 216.86,-1035.25"/>
<text xml:space="preserve" text-anchor="middle" x="229.73" y="-1091.45" font-family="Times,serif" font-size="14.00">A</text>
<polyline fill="none" stroke="black" points="216.86,-1084.25 242.61,-1084.25"/>
<text xml:space="preserve" text-anchor="middle" x="229.73" y="-1066.95" font-family="Times,serif" font-size="14.00">B</text>
<polyline fill="none" stroke="black" points="216.86,-1059.75 242.61,-1059.75"/>
<text xml:space="preserve" text-anchor="middle" x="229.73" y="-1042.45" font-family="Times,serif" font-size="14.00">S</text>
<polyline fill="none" stroke="black" points="242.61,-1035.25 242.61,-1108.75"/>
<text xml:space="preserve" text-anchor="middle" x="276.86" y="-1075.2" font-family="Times,serif" font-size="14.00">$79</text>
<text xml:space="preserve" text-anchor="middle" x="276.86" y="-1058.7" font-family="Times,serif" font-size="14.00">$_MUX_</text>
<polyline fill="none" stroke="black" points="311.11,-1035.25 311.11,-1108.75"/>
<text xml:space="preserve" text-anchor="middle" x="323.98" y="-1066.95" font-family="Times,serif" font-size="14.00">Y</text>
</g>
<!-- v1&#45;&gt;c7 -->
<g id="edge44" class="edge">
<title>v1:e&#45;&gt;c7:w</title>
<path fill="none" stroke="#e7298a" d="M177.86,-1088C192.06,-1088 196.37,-1078.81 205.79,-1074.36"/>
<polygon fill="#e7298a" stroke="#e7298a" points="206.33,-1077.82 215.38,-1072.32 204.87,-1070.98 206.33,-1077.82"/>
</g>
<!-- x3 -->
<g id="node7" class="node">
<title>x3</title>
<path fill="none" stroke="#e7298a" d="M384.86,-978C384.86,-978 423.36,-978 423.36,-978 429.36,-978 435.36,-984 435.36,-990 435.36,-990 435.36,-1002 435.36,-1002 435.36,-1008 429.36,-1014 423.36,-1014 423.36,-1014 384.86,-1014 384.86,-1014 378.86,-1014 372.86,-1008 372.86,-1002 372.86,-1002 372.86,-990 372.86,-990 372.86,-984 378.86,-978 384.86,-978"/>
<text xml:space="preserve" text-anchor="middle" x="404.11" y="-991.2" font-family="Times,serif" font-size="14.00" fill="#e7298a">0:0 &#45; 0:0</text>
</g>
<!-- c7&#45;&gt;x3 -->
<g id="edge3" class="edge">
<title>c7:e&#45;&gt;x3:w</title>
<path fill="none" stroke="#e6ab02" d="M348.97,-1067.47C361.75,-1053.92 347.92,-1013.8 360.86,-1000.41"/>
<polygon fill="none" stroke="#e6ab02" points="348.94,-1067.48 344.72,-1073.33 337.7,-1071.68 341.92,-1065.84 348.94,-1067.48"/>
<polygon fill="none" stroke="#e6ab02" points="360.75,-1000.45 365,-994.63 372.01,-996.31 367.76,-1002.13 360.75,-1000.45"/>
</g>
<!-- x0&#45;&gt;c7 -->
<g id="edge1" class="edge">
<title>x0:e&#45;&gt;c7:w</title>
<path fill="none" stroke="#666666" d="M192.53,-1137.67C199.5,-1128.7 198.23,-1110.7 205.23,-1101.77"/>
<polygon fill="none" stroke="#666666" points="192.59,-1137.64 188.8,-1143.77 181.68,-1142.63 185.47,-1136.49 192.59,-1137.64"/>
<polygon fill="none" stroke="#666666" points="205.11,-1101.83 208.92,-1095.71 216.04,-1096.87 212.22,-1102.99 205.11,-1101.83"/>
</g>
<!-- x2&#45;&gt;c7 -->
<g id="edge2" class="edge">
<title>x2:e&#45;&gt;c7:w</title>
<path fill="none" stroke="#e7298a" d="M193.38,-1036.36C197.32,-1038.71 200.42,-1041.82 204.37,-1044.16"/>
<polygon fill="none" stroke="#e7298a" points="193.32,-1036.35 186.49,-1038.65 181.73,-1033.23 188.56,-1030.93 193.32,-1036.35"/>
<polygon fill="none" stroke="#e7298a" points="204.4,-1044.16 211.23,-1041.85 215.99,-1047.27 209.16,-1049.58 204.4,-1044.16"/>
</g>
<!-- x3&#45;&gt;n2 -->
<g id="edge42" class="edge">
<title>x3:e&#45;&gt;n2:w</title>
<path fill="none" stroke="#666666" d="M435.36,-996.25C487.38,-996.25 425.07,-560.23 461.91,-502.33"/>
<polygon fill="#666666" stroke="#666666" points="463.74,-505.32 470.1,-496.84 459.84,-499.5 463.74,-505.32"/>
</g>
<!-- v5 -->
<g id="node8" class="node">
<title>v5</title>
<ellipse fill="none" stroke="black" cx="149.61" cy="-923" rx="27" ry="18"/>
<text xml:space="preserve" text-anchor="middle" x="149.61" y="-917.95" font-family="Times,serif" font-size="14.00">1&#39;0</text>
</g>
<!-- c8 -->
<g id="node9" class="node">
<title>c8</title>
<polygon fill="none" stroke="black" points="216.86,-870.25 216.86,-943.75 336.86,-943.75 336.86,-870.25 216.86,-870.25"/>
<text xml:space="preserve" text-anchor="middle" x="229.73" y="-926.45" font-family="Times,serif" font-size="14.00">A</text>
<polyline fill="none" stroke="black" points="216.86,-919.25 242.61,-919.25"/>
<text xml:space="preserve" text-anchor="middle" x="229.73" y="-901.95" font-family="Times,serif" font-size="14.00">B</text>
<polyline fill="none" stroke="black" points="216.86,-894.75 242.61,-894.75"/>
<text xml:space="preserve" text-anchor="middle" x="229.73" y="-877.45" font-family="Times,serif" font-size="14.00">S</text>
<polyline fill="none" stroke="black" points="242.61,-870.25 242.61,-943.75"/>
<text xml:space="preserve" text-anchor="middle" x="276.86" y="-910.2" font-family="Times,serif" font-size="14.00">$80</text>
<text xml:space="preserve" text-anchor="middle" x="276.86" y="-893.7" font-family="Times,serif" font-size="14.00">$_MUX_</text>
<polyline fill="none" stroke="black" points="311.11,-870.25 311.11,-943.75"/>
<text xml:space="preserve" text-anchor="middle" x="323.98" y="-901.95" font-family="Times,serif" font-size="14.00">Y</text>
</g>
<!-- v5&#45;&gt;c8 -->
<g id="edge50" class="edge">
<title>v5:e&#45;&gt;c8:w</title>
<path fill="none" stroke="#666666" d="M177.86,-923C192.06,-923 196.37,-913.81 205.79,-909.36"/>
<polygon fill="#666666" stroke="#666666" points="206.33,-912.82 215.38,-907.32 204.87,-905.98 206.33,-912.82"/>
</g>
<!-- x7 -->
<g id="node12" class="node">
<title>x7</title>
<path fill="none" stroke="#d95f02" d="M384.86,-822C384.86,-822 423.36,-822 423.36,-822 429.36,-822 435.36,-828 435.36,-834 435.36,-834 435.36,-846 435.36,-846 435.36,-852 429.36,-858 423.36,-858 423.36,-858 384.86,-858 384.86,-858 378.86,-858 372.86,-852 372.86,-846 372.86,-846 372.86,-834 372.86,-834 372.86,-828 378.86,-822 384.86,-822"/>
<text xml:space="preserve" text-anchor="middle" x="404.11" y="-835.2" font-family="Times,serif" font-size="14.00" fill="#d95f02">0:0 &#45; 1:1</text>
</g>
<!-- c8&#45;&gt;x7 -->
<g id="edge6" class="edge">
<title>c8:e&#45;&gt;x7:w</title>
<path fill="none" stroke="#666666" d="M348.79,-902.18C359.46,-889.82 350.25,-857.09 360.96,-844.77"/>
<polygon fill="none" stroke="#666666" points="348.82,-902.17 344.75,-908.13 337.69,-906.66 341.76,-900.71 348.82,-902.17"/>
<polygon fill="none" stroke="#666666" points="360.89,-844.81 364.96,-838.86 372.02,-840.34 367.94,-846.28 360.89,-844.81"/>
</g>
<!-- x4&#45;&gt;c8 -->
<g id="edge4" class="edge">
<title>x4:e&#45;&gt;c8:w</title>
<path fill="none" stroke="#66a61e" d="M192.53,-972.67C199.5,-963.7 198.23,-945.7 205.23,-936.77"/>
<polygon fill="none" stroke="#66a61e" points="192.59,-972.64 188.8,-978.77 181.68,-977.63 185.47,-971.49 192.59,-972.64"/>
<polygon fill="none" stroke="#66a61e" points="205.11,-936.83 208.92,-930.71 216.04,-931.87 212.22,-937.99 205.11,-936.83"/>
</g>
<!-- x6&#45;&gt;c8 -->
<g id="edge5" class="edge">
<title>x6:e&#45;&gt;c8:w</title>
<path fill="none" stroke="#d95f02" d="M193.38,-871.36C197.32,-873.71 200.42,-876.82 204.37,-879.16"/>
<polygon fill="none" stroke="#d95f02" points="193.32,-871.35 186.49,-873.65 181.73,-868.23 188.56,-865.93 193.32,-871.35"/>
<polygon fill="none" stroke="#d95f02" points="204.4,-879.16 211.23,-876.85 215.99,-882.27 209.16,-884.58 204.4,-879.16"/>
</g>
<!-- x7&#45;&gt;n2 -->
<g id="edge43" class="edge">
<title>x7:e&#45;&gt;n2:w</title>
<path fill="none" stroke="#666666" d="M435.36,-840.25C508.07,-840.25 406.75,-532.62 460.42,-498.98"/>
<polygon fill="#666666" stroke="#666666" points="461.17,-502.4 469.9,-496.4 459.33,-495.65 461.17,-502.4"/>
</g>
<!-- v9 -->
<g id="node13" class="node">
<title>v9</title>
<ellipse fill="none" stroke="black" cx="149.61" cy="-758" rx="27" ry="18"/>
<text xml:space="preserve" text-anchor="middle" x="149.61" y="-752.95" font-family="Times,serif" font-size="14.00">1&#39;0</text>
</g>
<!-- c9 -->
<g id="node14" class="node">
<title>c9</title>
<polygon fill="none" stroke="black" points="216.86,-705.25 216.86,-778.75 336.86,-778.75 336.86,-705.25 216.86,-705.25"/>
<text xml:space="preserve" text-anchor="middle" x="229.73" y="-761.45" font-family="Times,serif" font-size="14.00">A</text>
<polyline fill="none" stroke="black" points="216.86,-754.25 242.61,-754.25"/>
<text xml:space="preserve" text-anchor="middle" x="229.73" y="-736.95" font-family="Times,serif" font-size="14.00">B</text>
<polyline fill="none" stroke="black" points="216.86,-729.75 242.61,-729.75"/>
<text xml:space="preserve" text-anchor="middle" x="229.73" y="-712.45" font-family="Times,serif" font-size="14.00">S</text>
<polyline fill="none" stroke="black" points="242.61,-705.25 242.61,-778.75"/>
<text xml:space="preserve" text-anchor="middle" x="276.86" y="-745.2" font-family="Times,serif" font-size="14.00">$81</text>
<text xml:space="preserve" text-anchor="middle" x="276.86" y="-728.7" font-family="Times,serif" font-size="14.00">$_MUX_</text>
<polyline fill="none" stroke="black" points="311.11,-705.25 311.11,-778.75"/>
<text xml:space="preserve" text-anchor="middle" x="323.98" y="-736.95" font-family="Times,serif" font-size="14.00">Y</text>
</g>
<!-- v9&#45;&gt;c9 -->
<g id="edge51" class="edge">
<title>v9:e&#45;&gt;c9:w</title>
<path fill="none" stroke="#e6ab02" d="M177.86,-758C192.06,-758 196.37,-748.81 205.79,-744.36"/>
<polygon fill="#e6ab02" stroke="#e6ab02" points="206.33,-747.82 215.38,-742.32 204.87,-740.98 206.33,-747.82"/>
</g>
<!-- x11 -->
<g id="node17" class="node">
<title>x11</title>
<path fill="none" stroke="#1b9e77" d="M384.86,-675C384.86,-675 423.36,-675 423.36,-675 429.36,-675 435.36,-681 435.36,-687 435.36,-687 435.36,-699 435.36,-699 435.36,-705 429.36,-711 423.36,-711 423.36,-711 384.86,-711 384.86,-711 378.86,-711 372.86,-705 372.86,-699 372.86,-699 372.86,-687 372.86,-687 372.86,-681 378.86,-675 384.86,-675"/>
<text xml:space="preserve" text-anchor="middle" x="404.11" y="-688.2" font-family="Times,serif" font-size="14.00" fill="#1b9e77">0:0 &#45; 2:2</text>
</g>
<!-- c9&#45;&gt;x11 -->
<g id="edge9" class="edge">
<title>c9:e&#45;&gt;x11:w</title>
<path fill="none" stroke="#666666" d="M348.5,-736.76C355.86,-727.37 353.85,-707.82 361.13,-698.35"/>
<polygon fill="none" stroke="#666666" points="348.62,-736.7 344.79,-742.81 337.68,-741.63 341.51,-735.52 348.62,-736.7"/>
<polygon fill="none" stroke="#666666" points="361.12,-698.36 364.92,-692.23 372.04,-693.37 368.24,-699.5 361.12,-698.36"/>
</g>
<!-- x8&#45;&gt;c9 -->
<g id="edge7" class="edge">
<title>x8:e&#45;&gt;c9:w</title>
<path fill="none" stroke="#7570b3" d="M192.53,-807.67C199.5,-798.7 198.23,-780.7 205.23,-771.77"/>
<polygon fill="none" stroke="#7570b3" points="192.59,-807.64 188.8,-813.77 181.68,-812.63 185.47,-806.49 192.59,-807.64"/>
<polygon fill="none" stroke="#7570b3" points="205.11,-771.83 208.92,-765.71 216.04,-766.87 212.22,-772.99 205.11,-771.83"/>
</g>
<!-- x10&#45;&gt;c9 -->
<g id="edge8" class="edge">
<title>x10:e&#45;&gt;c9:w</title>
<path fill="none" stroke="#1b9e77" d="M193.38,-706.36C197.32,-708.71 200.42,-711.82 204.37,-714.16"/>
<polygon fill="none" stroke="#1b9e77" points="193.32,-706.35 186.49,-708.65 181.73,-703.23 188.56,-700.93 193.32,-706.35"/>
<polygon fill="none" stroke="#1b9e77" points="204.4,-714.16 211.23,-711.85 215.99,-717.27 209.16,-719.58 204.4,-714.16"/>
</g>
<!-- x11&#45;&gt;n2 -->
<g id="edge36" class="edge">
<title>x11:e&#45;&gt;n2:w</title>
<path fill="none" stroke="#666666" d="M435.36,-693.25C520.3,-693.25 395.07,-514.06 460.3,-497.26"/>
<polygon fill="#666666" stroke="#666666" points="460.31,-500.78 469.85,-496.17 459.52,-493.83 460.31,-500.78"/>
</g>
<!-- v13 -->
<g id="node18" class="node">
<title>v13</title>
<ellipse fill="none" stroke="black" cx="149.61" cy="-593" rx="27" ry="18"/>
<text xml:space="preserve" text-anchor="middle" x="149.61" y="-587.95" font-family="Times,serif" font-size="14.00">1&#39;0</text>
</g>
<!-- c10 -->
<g id="node19" class="node">
<title>c10</title>
<polygon fill="none" stroke="black" points="216.86,-540.25 216.86,-613.75 336.86,-613.75 336.86,-540.25 216.86,-540.25"/>
<text xml:space="preserve" text-anchor="middle" x="229.73" y="-596.45" font-family="Times,serif" font-size="14.00">A</text>
<polyline fill="none" stroke="black" points="216.86,-589.25 242.61,-589.25"/>
<text xml:space="preserve" text-anchor="middle" x="229.73" y="-571.95" font-family="Times,serif" font-size="14.00">B</text>
<polyline fill="none" stroke="black" points="216.86,-564.75 242.61,-564.75"/>
<text xml:space="preserve" text-anchor="middle" x="229.73" y="-547.45" font-family="Times,serif" font-size="14.00">S</text>
<polyline fill="none" stroke="black" points="242.61,-540.25 242.61,-613.75"/>
<text xml:space="preserve" text-anchor="middle" x="276.86" y="-580.2" font-family="Times,serif" font-size="14.00">$82</text>
<text xml:space="preserve" text-anchor="middle" x="276.86" y="-563.7" font-family="Times,serif" font-size="14.00">$_MUX_</text>
<polyline fill="none" stroke="black" points="311.11,-540.25 311.11,-613.75"/>
<text xml:space="preserve" text-anchor="middle" x="323.98" y="-571.95" font-family="Times,serif" font-size="14.00">Y</text>
</g>
<!-- v13&#45;&gt;c10 -->
<g id="edge45" class="edge">
<title>v13:e&#45;&gt;c10:w</title>
<path fill="none" stroke="#e6ab02" d="M177.86,-593C192.06,-593 196.37,-583.81 205.79,-579.36"/>
<polygon fill="#e6ab02" stroke="#e6ab02" points="206.33,-582.82 215.38,-577.32 204.87,-575.98 206.33,-582.82"/>
</g>
<!-- x15 -->
<g id="node22" class="node">
<title>x15</title>
<path fill="none" stroke="#e6ab02" d="M384.86,-545C384.86,-545 423.36,-545 423.36,-545 429.36,-545 435.36,-551 435.36,-557 435.36,-557 435.36,-569 435.36,-569 435.36,-575 429.36,-581 423.36,-581 423.36,-581 384.86,-581 384.86,-581 378.86,-581 372.86,-575 372.86,-569 372.86,-569 372.86,-557 372.86,-557 372.86,-551 378.86,-545 384.86,-545"/>
<text xml:space="preserve" text-anchor="middle" x="404.11" y="-558.2" font-family="Times,serif" font-size="14.00" fill="#e6ab02">0:0 &#45; 3:3</text>
</g>
<!-- c10&#45;&gt;x15 -->
<g id="edge12" class="edge">
<title>c10:e&#45;&gt;x15:w</title>
<path fill="none" stroke="#1b9e77" d="M349.36,-573.75C353.31,-571.49 356.44,-568.49 360.39,-566.23"/>
<polygon fill="none" stroke="#1b9e77" points="349.34,-573.76 344.54,-579.14 337.73,-576.77 342.53,-571.39 349.34,-573.76"/>
<polygon fill="none" stroke="#1b9e77" points="360.37,-566.24 365.17,-560.86 371.99,-563.23 367.18,-568.6 360.37,-566.24"/>
</g>
<!-- x12&#45;&gt;c10 -->
<g id="edge10" class="edge">
<title>x12:e&#45;&gt;c10:w</title>
<path fill="none" stroke="#d95f02" d="M192.53,-642.67C199.5,-633.7 198.23,-615.7 205.23,-606.77"/>
<polygon fill="none" stroke="#d95f02" points="192.59,-642.64 188.8,-648.77 181.68,-647.63 185.47,-641.49 192.59,-642.64"/>
<polygon fill="none" stroke="#d95f02" points="205.11,-606.83 208.92,-600.71 216.04,-601.87 212.22,-607.99 205.11,-606.83"/>
</g>
<!-- x14&#45;&gt;c10 -->
<g id="edge11" class="edge">
<title>x14:e&#45;&gt;c10:w</title>
<path fill="none" stroke="#e6ab02" d="M193.38,-541.36C197.32,-543.71 200.42,-546.82 204.37,-549.16"/>
<polygon fill="none" stroke="#e6ab02" points="193.32,-541.35 186.49,-543.65 181.73,-538.23 188.56,-535.93 193.32,-541.35"/>
<polygon fill="none" stroke="#e6ab02" points="204.4,-549.16 211.23,-546.85 215.99,-552.27 209.16,-554.58 204.4,-549.16"/>
</g>
<!-- x15&#45;&gt;n2 -->
<g id="edge37" class="edge">
<title>x15:e&#45;&gt;n2:w</title>
<path fill="none" stroke="#666666" d="M435.36,-563.25C464.49,-563.25 445.1,-513.58 460.59,-499.62"/>
<polygon fill="#666666" stroke="#666666" points="461.56,-502.98 469.92,-496.48 459.33,-496.35 461.56,-502.98"/>
</g>
<!-- v17 -->
<g id="node23" class="node">
<title>v17</title>
<ellipse fill="none" stroke="black" cx="149.61" cy="-428" rx="27" ry="18"/>
<text xml:space="preserve" text-anchor="middle" x="149.61" y="-422.95" font-family="Times,serif" font-size="14.00">1&#39;0</text>
</g>
<!-- c11 -->
<g id="node24" class="node">
<title>c11</title>
<polygon fill="none" stroke="black" points="216.86,-405.25 216.86,-478.75 336.86,-478.75 336.86,-405.25 216.86,-405.25"/>
<text xml:space="preserve" text-anchor="middle" x="229.73" y="-461.45" font-family="Times,serif" font-size="14.00">A</text>
<polyline fill="none" stroke="black" points="216.86,-454.25 242.61,-454.25"/>
<text xml:space="preserve" text-anchor="middle" x="229.73" y="-436.95" font-family="Times,serif" font-size="14.00">B</text>
<polyline fill="none" stroke="black" points="216.86,-429.75 242.61,-429.75"/>
<text xml:space="preserve" text-anchor="middle" x="229.73" y="-412.45" font-family="Times,serif" font-size="14.00">S</text>
<polyline fill="none" stroke="black" points="242.61,-405.25 242.61,-478.75"/>
<text xml:space="preserve" text-anchor="middle" x="276.86" y="-445.2" font-family="Times,serif" font-size="14.00">$83</text>
<text xml:space="preserve" text-anchor="middle" x="276.86" y="-428.7" font-family="Times,serif" font-size="14.00">$_MUX_</text>
<polyline fill="none" stroke="black" points="311.11,-405.25 311.11,-478.75"/>
<text xml:space="preserve" text-anchor="middle" x="323.98" y="-436.95" font-family="Times,serif" font-size="14.00">Y</text>
</g>
<!-- v17&#45;&gt;c11 -->
<g id="edge46" class="edge">
<title>v17:e&#45;&gt;c11:w</title>
<path fill="none" stroke="#66a61e" d="M177.86,-428C191.67,-428 196.34,-435.88 205.59,-439.81"/>
<polygon fill="#66a61e" stroke="#66a61e" points="204.89,-443.24 215.37,-441.71 206.22,-436.37 204.89,-443.24"/>
</g>
<!-- x19 -->
<g id="node27" class="node">
<title>x19</title>
<path fill="none" stroke="#666666" d="M384.86,-451C384.86,-451 423.36,-451 423.36,-451 429.36,-451 435.36,-457 435.36,-463 435.36,-463 435.36,-475 435.36,-475 435.36,-481 429.36,-487 423.36,-487 423.36,-487 384.86,-487 384.86,-487 378.86,-487 372.86,-481 372.86,-475 372.86,-475 372.86,-463 372.86,-463 372.86,-457 378.86,-451 384.86,-451"/>
<text xml:space="preserve" text-anchor="middle" x="404.11" y="-464.2" font-family="Times,serif" font-size="14.00" fill="#666666">0:0 &#45; 4:4</text>
</g>
<!-- c11&#45;&gt;x19 -->
<g id="edge15" class="edge">
<title>c11:e&#45;&gt;x19:w</title>
<path fill="none" stroke="#66a61e" d="M348.86,-446.95C353.61,-451.82 356.12,-459.22 360.88,-464.08"/>
<polygon fill="none" stroke="#66a61e" points="348.78,-446.92 341.71,-448.33 337.69,-442.34 344.76,-440.93 348.78,-446.92"/>
<polygon fill="none" stroke="#66a61e" points="360.92,-464.1 368,-462.68 372.02,-468.66 364.95,-470.08 360.92,-464.1"/>
</g>
<!-- x16&#45;&gt;c11 -->
<g id="edge13" class="edge">
<title>x16:e&#45;&gt;c11:w</title>
<path fill="none" stroke="#e6ab02" d="M193.22,-479.34C197.32,-476.6 200.41,-472.88 204.51,-470.15"/>
<polygon fill="none" stroke="#e6ab02" points="193.23,-479.33 188.61,-484.87 181.72,-482.74 186.34,-477.2 193.23,-479.33"/>
<polygon fill="none" stroke="#e6ab02" points="204.49,-470.16 209.11,-464.62 215.99,-466.76 211.37,-472.29 204.49,-470.16"/>
</g>
<!-- x18&#45;&gt;c11 -->
<g id="edge14" class="edge">
<title>x18:e&#45;&gt;c11:w</title>
<path fill="none" stroke="#666666" d="M192.61,-378.46C199.16,-387 198.55,-403.43 205.07,-412"/>
<polygon fill="none" stroke="#666666" points="192.56,-378.43 185.43,-379.53 181.68,-373.38 188.8,-372.28 192.56,-378.43"/>
<polygon fill="none" stroke="#666666" points="205.17,-412.04 212.3,-410.96 216.04,-417.12 208.91,-418.21 205.17,-412.04"/>
</g>
<!-- x19&#45;&gt;n2 -->
<g id="edge38" class="edge">
<title>x19:e&#45;&gt;n2:w</title>
<path fill="none" stroke="#666666" d="M435.36,-469.25C450.62,-469.25 451.93,-484.93 460.65,-492.28"/>
<polygon fill="#666666" stroke="#666666" points="459.33,-495.53 469.93,-495.5 461.63,-488.92 459.33,-495.53"/>
</g>
<!-- v21 -->
<g id="node28" class="node">
<title>v21</title>
<ellipse fill="none" stroke="black" cx="149.61" cy="-263" rx="27" ry="18"/>
<text xml:space="preserve" text-anchor="middle" x="149.61" y="-257.95" font-family="Times,serif" font-size="14.00">1&#39;0</text>
</g>
<!-- c12 -->
<g id="node29" class="node">
<title>c12</title>
<polygon fill="none" stroke="black" points="216.86,-242.25 216.86,-315.75 336.86,-315.75 336.86,-242.25 216.86,-242.25"/>
<text xml:space="preserve" text-anchor="middle" x="229.73" y="-298.45" font-family="Times,serif" font-size="14.00">A</text>
<polyline fill="none" stroke="black" points="216.86,-291.25 242.61,-291.25"/>
<text xml:space="preserve" text-anchor="middle" x="229.73" y="-273.95" font-family="Times,serif" font-size="14.00">B</text>
<polyline fill="none" stroke="black" points="216.86,-266.75 242.61,-266.75"/>
<text xml:space="preserve" text-anchor="middle" x="229.73" y="-249.45" font-family="Times,serif" font-size="14.00">S</text>
<polyline fill="none" stroke="black" points="242.61,-242.25 242.61,-315.75"/>
<text xml:space="preserve" text-anchor="middle" x="276.86" y="-282.2" font-family="Times,serif" font-size="14.00">$84</text>
<text xml:space="preserve" text-anchor="middle" x="276.86" y="-265.7" font-family="Times,serif" font-size="14.00">$_MUX_</text>
<polyline fill="none" stroke="black" points="311.11,-242.25 311.11,-315.75"/>
<text xml:space="preserve" text-anchor="middle" x="323.98" y="-273.95" font-family="Times,serif" font-size="14.00">Y</text>
</g>
<!-- v21&#45;&gt;c12 -->
<g id="edge47" class="edge">
<title>v21:e&#45;&gt;c12:w</title>
<path fill="none" stroke="#d95f02" d="M177.86,-263C192.06,-263 196.37,-272.19 205.79,-276.64"/>
<polygon fill="#d95f02" stroke="#d95f02" points="204.87,-280.02 215.38,-278.68 206.33,-273.18 204.87,-280.02"/>
</g>
<!-- x23 -->
<g id="node32" class="node">
<title>x23</title>
<path fill="none" stroke="#d95f02" d="M384.86,-321C384.86,-321 423.36,-321 423.36,-321 429.36,-321 435.36,-327 435.36,-333 435.36,-333 435.36,-345 435.36,-345 435.36,-351 429.36,-357 423.36,-357 423.36,-357 384.86,-357 384.86,-357 378.86,-357 372.86,-351 372.86,-345 372.86,-345 372.86,-333 372.86,-333 372.86,-327 378.86,-321 384.86,-321"/>
<text xml:space="preserve" text-anchor="middle" x="404.11" y="-334.2" font-family="Times,serif" font-size="14.00" fill="#d95f02">0:0 &#45; 5:5</text>
</g>
<!-- c12&#45;&gt;x23 -->
<g id="edge18" class="edge">
<title>c12:e&#45;&gt;x23:w</title>
<path fill="none" stroke="#d95f02" d="M348.74,-284.12C357.84,-295.45 351.87,-322.57 360.99,-333.9"/>
<polygon fill="none" stroke="#d95f02" points="348.71,-284.1 341.61,-285.4 337.69,-279.36 344.78,-278.06 348.71,-284.1"/>
<polygon fill="none" stroke="#d95f02" points="361.01,-333.9 368.1,-332.6 372.03,-338.64 364.94,-339.95 361.01,-333.9"/>
</g>
<!-- x20&#45;&gt;c12 -->
<g id="edge16" class="edge">
<title>x20:e&#45;&gt;c12:w</title>
<path fill="none" stroke="#7570b3" d="M193.38,-314.64C197.32,-312.29 200.42,-309.18 204.37,-306.84"/>
<polygon fill="none" stroke="#7570b3" points="193.32,-314.65 188.56,-320.07 181.73,-317.77 186.49,-312.35 193.32,-314.65"/>
<polygon fill="none" stroke="#7570b3" points="204.4,-306.84 209.16,-301.42 215.99,-303.73 211.23,-309.15 204.4,-306.84"/>
</g>
<!-- x22&#45;&gt;c12 -->
<g id="edge17" class="edge">
<title>x22:e&#45;&gt;c12:w</title>
<path fill="none" stroke="#d95f02" d="M192.53,-213.33C199.5,-222.3 198.23,-240.3 205.23,-249.23"/>
<polygon fill="none" stroke="#d95f02" points="192.59,-213.36 185.47,-214.51 181.68,-208.37 188.8,-207.23 192.59,-213.36"/>
<polygon fill="none" stroke="#d95f02" points="205.11,-249.17 212.22,-248.01 216.04,-254.13 208.92,-255.29 205.11,-249.17"/>
</g>
<!-- x23&#45;&gt;n2 -->
<g id="edge39" class="edge">
<title>x23:e&#45;&gt;n2:w</title>
<path fill="none" stroke="#666666" d="M435.36,-339.25C502.51,-339.25 412.18,-477.59 460.26,-494.35"/>
<polygon fill="#666666" stroke="#666666" points="459.45,-497.76 469.86,-495.78 460.49,-490.84 459.45,-497.76"/>
</g>
<!-- v25 -->
<g id="node33" class="node">
<title>v25</title>
<ellipse fill="none" stroke="black" cx="149.61" cy="-98" rx="27" ry="18"/>
<text xml:space="preserve" text-anchor="middle" x="149.61" y="-92.95" font-family="Times,serif" font-size="14.00">1&#39;0</text>
</g>
<!-- c13 -->
<g id="node34" class="node">
<title>c13</title>
<polygon fill="none" stroke="black" points="216.86,-92.25 216.86,-165.75 336.86,-165.75 336.86,-92.25 216.86,-92.25"/>
<text xml:space="preserve" text-anchor="middle" x="229.73" y="-148.45" font-family="Times,serif" font-size="14.00">A</text>
<polyline fill="none" stroke="black" points="216.86,-141.25 242.61,-141.25"/>
<text xml:space="preserve" text-anchor="middle" x="229.73" y="-123.95" font-family="Times,serif" font-size="14.00">B</text>
<polyline fill="none" stroke="black" points="216.86,-116.75 242.61,-116.75"/>
<text xml:space="preserve" text-anchor="middle" x="229.73" y="-99.45" font-family="Times,serif" font-size="14.00">S</text>
<polyline fill="none" stroke="black" points="242.61,-92.25 242.61,-165.75"/>
<text xml:space="preserve" text-anchor="middle" x="276.86" y="-132.2" font-family="Times,serif" font-size="14.00">$85</text>
<text xml:space="preserve" text-anchor="middle" x="276.86" y="-115.7" font-family="Times,serif" font-size="14.00">$_MUX_</text>
<polyline fill="none" stroke="black" points="311.11,-92.25 311.11,-165.75"/>
<text xml:space="preserve" text-anchor="middle" x="323.98" y="-123.95" font-family="Times,serif" font-size="14.00">Y</text>
</g>
<!-- v25&#45;&gt;c13 -->
<g id="edge48" class="edge">
<title>v25:e&#45;&gt;c13:w</title>
<path fill="none" stroke="#d95f02" d="M177.86,-98C195.33,-98 195.73,-117.3 205.99,-125.44"/>
<polygon fill="#d95f02" stroke="#d95f02" points="204.83,-128.74 215.42,-128.53 207,-122.09 204.83,-128.74"/>
</g>
<!-- x27 -->
<g id="node37" class="node">
<title>x27</title>
<path fill="none" stroke="#e7298a" d="M384.86,-188C384.86,-188 423.36,-188 423.36,-188 429.36,-188 435.36,-194 435.36,-200 435.36,-200 435.36,-212 435.36,-212 435.36,-218 429.36,-224 423.36,-224 423.36,-224 384.86,-224 384.86,-224 378.86,-224 372.86,-218 372.86,-212 372.86,-212 372.86,-200 372.86,-200 372.86,-194 378.86,-188 384.86,-188"/>
<text xml:space="preserve" text-anchor="middle" x="404.11" y="-201.2" font-family="Times,serif" font-size="14.00" fill="#e7298a">0:0 &#45; 6:6</text>
</g>
<!-- c13&#45;&gt;x27 -->
<g id="edge21" class="edge">
<title>c13:e&#45;&gt;x27:w</title>
<path fill="none" stroke="#e6ab02" d="M349.07,-133.59C361.93,-147.31 347.74,-187.97 360.76,-201.53"/>
<polygon fill="none" stroke="#e6ab02" points="348.94,-133.53 341.91,-135.17 337.7,-129.32 344.72,-127.68 348.94,-133.53"/>
<polygon fill="none" stroke="#e6ab02" points="360.75,-201.53 367.77,-199.86 372.01,-205.69 365,-207.36 360.75,-201.53"/>
</g>
<!-- x24&#45;&gt;c13 -->
<g id="edge19" class="edge">
<title>x24:e&#45;&gt;c13:w</title>
<path fill="none" stroke="#7570b3" d="M193.58,-153.13C197.18,-153.2 200.31,-153.29 203.89,-153.37"/>
<polygon fill="none" stroke="#7570b3" points="193.76,-153.13 187.72,-157.07 181.76,-153.01 187.8,-149.07 193.76,-153.13"/>
<polygon fill="none" stroke="#7570b3" points="203.96,-153.37 210,-149.43 215.96,-153.49 209.92,-157.43 203.96,-153.37"/>
</g>
<!-- x26&#45;&gt;c13 -->
<g id="edge20" class="edge">
<title>x26:e&#45;&gt;c13:w</title>
<path fill="none" stroke="#e7298a" d="M192.56,-47.83C202.28,-59.27 195.46,-87.94 205.03,-99.53"/>
<polygon fill="none" stroke="#e7298a" points="192.78,-47.92 185.71,-49.33 181.69,-43.34 188.76,-41.93 192.78,-47.92"/>
<polygon fill="none" stroke="#e7298a" points="204.97,-99.5 212.05,-98.14 216.03,-104.15 208.95,-105.51 204.97,-99.5"/>
</g>
<!-- x27&#45;&gt;n2 -->
<g id="edge40" class="edge">
<title>x27:e&#45;&gt;n2:w</title>
<path fill="none" stroke="#666666" d="M435.36,-206.25C496.06,-206.25 417.9,-459.85 460.7,-492.54"/>
<polygon fill="#666666" stroke="#666666" points="459.33,-495.78 469.92,-495.53 461.49,-489.12 459.33,-495.78"/>
</g>
<!-- v28 -->
<g id="node38" class="node">
<title>v28</title>
<ellipse fill="none" stroke="black" cx="276.86" cy="-56" rx="27" ry="18"/>
<text xml:space="preserve" text-anchor="middle" x="276.86" y="-50.95" font-family="Times,serif" font-size="14.00">1&#39;0</text>
</g>
<!-- x29 -->
<g id="node39" class="node">
<title>x29</title>
<path fill="none" stroke="#e6ab02" d="M384.86,-124C384.86,-124 423.36,-124 423.36,-124 429.36,-124 435.36,-130 435.36,-136 435.36,-136 435.36,-148 435.36,-148 435.36,-154 429.36,-160 423.36,-160 423.36,-160 384.86,-160 384.86,-160 378.86,-160 372.86,-154 372.86,-148 372.86,-148 372.86,-136 372.86,-136 372.86,-130 378.86,-124 384.86,-124"/>
<text xml:space="preserve" text-anchor="middle" x="404.11" y="-137.2" font-family="Times,serif" font-size="14.00" fill="#e6ab02">0:0 &#45; 7:7</text>
</g>
<!-- v28&#45;&gt;x29 -->
<g id="edge49" class="edge">
<title>v28:e&#45;&gt;x29:w</title>
<path fill="none" stroke="#e7298a" d="M305.11,-56C323.63,-56 324.83,-68.92 336.86,-83 353.85,-102.89 345.73,-131.69 361.92,-139.8"/>
<polygon fill="#e7298a" stroke="#e7298a" points="360.88,-143.16 371.37,-141.7 362.26,-136.3 360.88,-143.16"/>
</g>
<!-- x29&#45;&gt;n2 -->
<g id="edge41" class="edge">
<title>x29:e&#45;&gt;n2:w</title>
<path fill="none" stroke="#666666" d="M435.36,-142.25C510.21,-142.25 404.65,-459.67 460.48,-493.15"/>
<polygon fill="#666666" stroke="#666666" points="459.33,-496.47 469.89,-495.62 461.11,-489.7 459.33,-496.47"/>
</g>
</g>
</svg>
